<?xml version="1.0" encoding="UTF-8"?>
<svg version="1.1" xmlns="http://www.w3.org/2000/svg" width="639" height="644">
<path d="M0 0 C1.19786133 -0.04350586 1.19786133 -0.04350586 2.41992188 -0.08789062 C6.41779957 -0.13094979 8.56738405 0.02309674 12.08984375 2.08203125 C14.15202977 4.41373069 14.74716908 5.25744304 14.6875 8.3125 C14.47032615 11.54597727 14.14047086 12.22076957 11.9375 14.8125 C9.0625 16.3125 9.0625 16.3125 3.0625 16.3125 C4.0525 43.7025 5.0425 71.0925 6.0625 99.3125 C11.6725 101.9525 17.2825 104.5925 23.0625 107.3125 C25.94610824 108.91476677 28.68965667 110.46508922 31.4375 112.25 C32.09411621 112.67055664 32.75073242 113.09111328 33.42724609 113.52441406 C58.62396563 129.94391649 77.20261455 152.69186642 84.0625 182.3125 C88.51416018 208.10245131 81.21031926 231.76932671 66.578125 252.9296875 C64.40277585 255.96071882 61.93619649 258.59906456 59.375 261.3125 C56.06607282 265.37679843 55.58583047 268.09357232 55.8125 273.3125 C56.16190505 276.01492966 56.56200136 278.64028325 57.0625 281.3125 C57.19269531 282.04629883 57.32289063 282.78009766 57.45703125 283.53613281 C59.11638273 292.60441112 61.39594975 301.05975305 65.109375 309.515625 C66.18116821 312.66072311 66.36885271 315.01120666 66.0625 318.3125 C64.125 321.1875 64.125 321.1875 61.0625 323.3125 C54.92332965 324.18754708 48.90857574 322.91018285 43 321.3125 C41.77434326 320.98354736 41.77434326 320.98354736 40.52392578 320.64794922 C27.06263284 316.81118078 12.28729625 310.11329462 4.0625 298.3125 C-0.34335601 299.17539807 -4.74484008 300.03884674 -9.12109375 301.04296875 C-54.38434538 311.35147808 -104.09795839 304.6450145 -143.9375 280.3125 C-164.26057696 267.14055732 -179.99414842 249.98729928 -188.9375 227.3125 C-189.37320313 226.21164062 -189.80890625 225.11078125 -190.2578125 223.9765625 C-197.66445921 201.3422645 -193.50987132 175.17768475 -182.9375 154.3125 C-169.30094053 129.76013692 -147.14131402 111.91060708 -122.125 99.9375 C-121.08520996 99.43645752 -121.08520996 99.43645752 -120.02441406 98.92529297 C-115.400423 96.77899229 -110.91539141 95.4162206 -105.9375 94.3125 C-106.2675 93.6525 -106.5975 92.9925 -106.9375 92.3125 C-107.08164289 90.28787052 -107.16431575 88.25876039 -107.21875 86.22973633 C-107.25548828 84.95113235 -107.29222656 83.67252838 -107.33007812 82.35517883 C-107.35630249 81.32660987 -107.35630249 81.32660987 -107.38305664 80.27726173 C-107.43790869 78.12852148 -107.49848086 75.98000986 -107.56054688 73.83146667 C-107.69143485 69.26278252 -107.81476749 64.69390939 -107.9375 60.125 C-108.0798851 54.84673999 -108.22539171 49.56859206 -108.37719727 44.2905941 C-108.43644746 42.18198923 -108.49081225 40.07329596 -108.54492188 37.96455383 C-108.58166016 36.67018906 -108.61839844 35.37582428 -108.65625 34.04223633 C-108.68654297 32.909095 -108.71683594 31.77595367 -108.74804688 30.60847473 C-108.94781107 27.13311513 -109.39892768 23.75031054 -109.9375 20.3125 C-111.195625 20.23 -112.45375 20.1475 -113.75 20.0625 C-116.61947513 19.69175366 -117.68040589 19.52942316 -119.9375 17.625 C-121.27788506 14.52535954 -121.48417869 12.66090698 -120.9375 9.3125 C-118.83113149 6.26345265 -117.16868438 4.55861534 -113.46435547 3.81811523 C-110.50963462 3.59591165 -107.5879108 3.51706091 -104.625 3.5 C-103.59826172 3.47486328 -102.57152344 3.44972656 -101.51367188 3.42382812 C-98.987896 3.36508915 -96.46384772 3.32871288 -93.9375 3.3125 C-93.67135372 10.81669114 -93.41034325 18.32104775 -93.15519714 25.82562065 C-93.03646609 29.31352117 -92.91622141 32.80135314 -92.79199219 36.2890625 C-92.15175865 54.30070661 -91.78509975 72.28736067 -91.9375 90.3125 C-91.33362961 90.17560257 -90.72975922 90.03870514 -90.10758972 89.8976593 C-89.30791275 89.71785019 -88.50823578 89.53804108 -87.68432617 89.3527832 C-86.89483078 89.17463577 -86.10533539 88.99648834 -85.29191589 88.8129425 C-78.67894475 87.40732345 -72.29251962 87.2777105 -65.54296875 87.42578125 C-64.78323761 87.4405954 -64.02350647 87.45540955 -63.24075317 87.47067261 C-60.05923139 87.53443663 -56.87874298 87.59853292 -53.69848633 87.71020508 C-51.35469431 87.78887815 -49.01277892 87.82931766 -46.66796875 87.86328125 C-45.95126511 87.89738602 -45.23456146 87.93149078 -44.49613953 87.96662903 C-42.19714127 88.04396056 -42.19714127 88.04396056 -38.9375 87.3125 C-36.48963071 84.47862246 -36.48963071 84.47862246 -34.9375 81.3125 C-31.14622511 77.93645998 -26.96230758 76.65949417 -21.9296875 76.9140625 C-17.55177783 77.78964443 -14.07451029 80.17548971 -10.9375 83.3125 C-10.87866963 72.92981476 -11.04758306 62.56899894 -11.375 52.19140625 C-11.42003852 50.71069428 -11.46487499 49.22997616 -11.50952148 47.74925232 C-11.62588935 43.90739717 -11.74494637 40.06563023 -11.86462402 36.22387695 C-11.98694087 32.28146372 -12.10663092 28.33897076 -12.2265625 24.39648438 C-12.46101594 16.70174396 -12.69831918 9.00709508 -12.9375 1.3125 C-8.57603368 0.17414695 -4.49452176 0.05415086 0 0 Z M-160.375 141.8125 C-177.84107484 161.82752108 -182.6127353 183.59469184 -181.9375 209.3125 C-174.05229569 211.77662635 -166.40277859 212.46824622 -158.1796875 212.515625 C-157.36268372 212.52268463 -156.54567993 212.52974426 -155.70391846 212.53701782 C-138.5840202 212.65126953 -121.78221409 212.73050196 -104.9375 209.3125 C-104.04885254 209.14572754 -103.16020508 208.97895508 -102.24462891 208.80712891 C-84.58499403 205.43916459 -67.54763284 199.93903469 -50.46459961 194.42651367 C-12.97568589 182.39483821 24.15244221 177.12655524 62.92163086 185.99121094 C66.42394056 186.79109084 69.44860781 187.3125 73.0625 187.3125 C69.72487388 162.85575688 53.64843575 142.77871137 34.50341797 128.11865234 C22.20349679 119.01014012 1.12397364 104.68863067 -14.5625 105.5 C-15.67625 105.768125 -16.79 106.03625 -17.9375 106.3125 C-23.94687262 107.56034787 -27.82321302 107.55633982 -33.24609375 104.5 C-34.9375 103.3125 -34.9375 103.3125 -36.8125 101.125 C-40.41233029 98.05455652 -44.33715635 98.44193523 -48.9375 98.3125 C-49.62408691 98.28671875 -50.31067383 98.2609375 -51.01806641 98.234375 C-93.43086881 96.78281385 -131.0205865 111.02397775 -160.375 141.8125 Z " fill="#0452C8" transform="translate(373.9375,183.6875)"/>
<path d="M0 0 C1.19786133 -0.04350586 1.19786133 -0.04350586 2.41992188 -0.08789062 C6.41779957 -0.13094979 8.56738405 0.02309674 12.08984375 2.08203125 C14.15202977 4.41373069 14.74716908 5.25744304 14.6875 8.3125 C14.47032615 11.54597727 14.14047086 12.22076957 11.9375 14.8125 C9.0625 16.3125 9.0625 16.3125 3.0625 16.3125 C4.0525 43.7025 5.0425 71.0925 6.0625 99.3125 C11.6725 101.9525 17.2825 104.5925 23.0625 107.3125 C25.94610824 108.91476677 28.68965667 110.46508922 31.4375 112.25 C32.09411621 112.67055664 32.75073242 113.09111328 33.42724609 113.52441406 C58.62396563 129.94391649 77.20261455 152.69186642 84.0625 182.3125 C88.51416018 208.10245131 81.21031926 231.76932671 66.578125 252.9296875 C64.40277585 255.96071882 61.93619649 258.59906456 59.375 261.3125 C56.06607282 265.37679843 55.58583047 268.09357232 55.8125 273.3125 C56.16190505 276.01492966 56.56200136 278.64028325 57.0625 281.3125 C57.19269531 282.04629883 57.32289063 282.78009766 57.45703125 283.53613281 C59.11638273 292.60441112 61.39594975 301.05975305 65.109375 309.515625 C66.18116821 312.66072311 66.36885271 315.01120666 66.0625 318.3125 C64.125 321.1875 64.125 321.1875 61.0625 323.3125 C54.92332965 324.18754708 48.90857574 322.91018285 43 321.3125 C41.77434326 320.98354736 41.77434326 320.98354736 40.52392578 320.64794922 C27.06263284 316.81118078 12.28729625 310.11329462 4.0625 298.3125 C-0.34335601 299.17539807 -4.74484008 300.03884674 -9.12109375 301.04296875 C-54.38434538 311.35147808 -104.09795839 304.6450145 -143.9375 280.3125 C-164.26057696 267.14055732 -179.99414842 249.98729928 -188.9375 227.3125 C-189.37320313 226.21164062 -189.80890625 225.11078125 -190.2578125 223.9765625 C-197.66445921 201.3422645 -193.50987132 175.17768475 -182.9375 154.3125 C-169.30094053 129.76013692 -147.14131402 111.91060708 -122.125 99.9375 C-121.08520996 99.43645752 -121.08520996 99.43645752 -120.02441406 98.92529297 C-115.400423 96.77899229 -110.91539141 95.4162206 -105.9375 94.3125 C-106.2675 93.6525 -106.5975 92.9925 -106.9375 92.3125 C-107.08164289 90.28787052 -107.16431575 88.25876039 -107.21875 86.22973633 C-107.25548828 84.95113235 -107.29222656 83.67252838 -107.33007812 82.35517883 C-107.35630249 81.32660987 -107.35630249 81.32660987 -107.38305664 80.27726173 C-107.43790869 78.12852148 -107.49848086 75.98000986 -107.56054688 73.83146667 C-107.69143485 69.26278252 -107.81476749 64.69390939 -107.9375 60.125 C-108.0798851 54.84673999 -108.22539171 49.56859206 -108.37719727 44.2905941 C-108.43644746 42.18198923 -108.49081225 40.07329596 -108.54492188 37.96455383 C-108.58166016 36.67018906 -108.61839844 35.37582428 -108.65625 34.04223633 C-108.68654297 32.909095 -108.71683594 31.77595367 -108.74804688 30.60847473 C-108.94781107 27.13311513 -109.39892768 23.75031054 -109.9375 20.3125 C-111.195625 20.23 -112.45375 20.1475 -113.75 20.0625 C-116.61947513 19.69175366 -117.68040589 19.52942316 -119.9375 17.625 C-121.27788506 14.52535954 -121.48417869 12.66090698 -120.9375 9.3125 C-118.83113149 6.26345265 -117.16868438 4.55861534 -113.46435547 3.81811523 C-110.50963462 3.59591165 -107.5879108 3.51706091 -104.625 3.5 C-103.59826172 3.47486328 -102.57152344 3.44972656 -101.51367188 3.42382812 C-98.987896 3.36508915 -96.46384772 3.32871288 -93.9375 3.3125 C-93.67135372 10.81669114 -93.41034325 18.32104775 -93.15519714 25.82562065 C-93.03646609 29.31352117 -92.91622141 32.80135314 -92.79199219 36.2890625 C-92.15175865 54.30070661 -91.78509975 72.28736067 -91.9375 90.3125 C-91.33362961 90.17560257 -90.72975922 90.03870514 -90.10758972 89.8976593 C-89.30791275 89.71785019 -88.50823578 89.53804108 -87.68432617 89.3527832 C-86.89483078 89.17463577 -86.10533539 88.99648834 -85.29191589 88.8129425 C-78.67894475 87.40732345 -72.29251962 87.2777105 -65.54296875 87.42578125 C-64.78323761 87.4405954 -64.02350647 87.45540955 -63.24075317 87.47067261 C-60.05923139 87.53443663 -56.87874298 87.59853292 -53.69848633 87.71020508 C-51.35469431 87.78887815 -49.01277892 87.82931766 -46.66796875 87.86328125 C-45.95126511 87.89738602 -45.23456146 87.93149078 -44.49613953 87.96662903 C-42.19714127 88.04396056 -42.19714127 88.04396056 -38.9375 87.3125 C-36.48963071 84.47862246 -36.48963071 84.47862246 -34.9375 81.3125 C-31.14622511 77.93645998 -26.96230758 76.65949417 -21.9296875 76.9140625 C-17.55177783 77.78964443 -14.07451029 80.17548971 -10.9375 83.3125 C-10.87866963 72.92981476 -11.04758306 62.56899894 -11.375 52.19140625 C-11.42003852 50.71069428 -11.46487499 49.22997616 -11.50952148 47.74925232 C-11.62588935 43.90739717 -11.74494637 40.06563023 -11.86462402 36.22387695 C-11.98694087 32.28146372 -12.10663092 28.33897076 -12.2265625 24.39648438 C-12.46101594 16.70174396 -12.69831918 9.00709508 -12.9375 1.3125 C-8.57603368 0.17414695 -4.49452176 0.05415086 0 0 Z M-160.375 141.8125 C-177.84107484 161.82752108 -182.6127353 183.59469184 -181.9375 209.3125 C-174.05229569 211.77662635 -166.40277859 212.46824622 -158.1796875 212.515625 C-157.36268372 212.52268463 -156.54567993 212.52974426 -155.70391846 212.53701782 C-138.5840202 212.65126953 -121.78221409 212.73050196 -104.9375 209.3125 C-104.04885254 209.14572754 -103.16020508 208.97895508 -102.24462891 208.80712891 C-84.58499403 205.43916459 -67.54763284 199.93903469 -50.46459961 194.42651367 C-12.97568589 182.39483821 24.15244221 177.12655524 62.92163086 185.99121094 C66.42394056 186.79109084 69.44860781 187.3125 73.0625 187.3125 C69.72487388 162.85575688 53.64843575 142.77871137 34.50341797 128.11865234 C22.20349679 119.01014012 1.12397364 104.68863067 -14.5625 105.5 C-15.67625 105.768125 -16.79 106.03625 -17.9375 106.3125 C-23.94687262 107.56034787 -27.82321302 107.55633982 -33.24609375 104.5 C-34.9375 103.3125 -34.9375 103.3125 -36.8125 101.125 C-40.41233029 98.05455652 -44.33715635 98.44193523 -48.9375 98.3125 C-49.62408691 98.28671875 -50.31067383 98.2609375 -51.01806641 98.234375 C-93.43086881 96.78281385 -131.0205865 111.02397775 -160.375 141.8125 Z M6.0625 188.3125 C5.87300781 188.95316406 5.68351563 189.59382812 5.48828125 190.25390625 C4.0625 192.3125 4.0625 192.3125 1.10546875 192.96484375 C-0.16683594 193.05894531 -1.43914062 193.15304687 -2.75 193.25 C-9.20206519 193.8320224 -15.39882118 194.94557722 -21.69140625 196.47265625 C-22.59700287 196.69066895 -23.50259949 196.90868164 -24.43563843 197.13330078 C-34.44437122 199.60035226 -44.24686084 202.67737723 -54.0625 205.8125 C-88.69244488 216.82850936 -88.69244488 216.82850936 -106.5 219.5625 C-107.96276367 219.80226563 -107.96276367 219.80226563 -109.45507812 220.046875 C-112.27907853 220.49962056 -115.10487877 220.91753645 -117.9375 221.3125 C-119.08351685 221.47371338 -119.08351685 221.47371338 -120.25268555 221.63818359 C-127.89081308 222.55667717 -135.56810391 222.46346059 -143.2487793 222.44287109 C-145.60276855 222.43755025 -147.9565637 222.44282273 -150.31054688 222.44921875 C-159.89585363 222.4529873 -169.38215945 222.08909808 -178.9375 221.3125 C-172.10961025 245.4109344 -152.65530589 262.59012496 -131.66796875 274.7421875 C-95.82076451 294.67456484 -48.83170378 300.96697749 -9.15234375 290.03515625 C-6.26396027 289.20521636 -3.39937038 288.31988137 -0.5390625 287.3984375 C2.67333596 286.42984013 5.74461571 285.77474394 9.0625 285.3125 C9.31902344 285.7971875 9.57554687 286.281875 9.83984375 286.78125 C16.5991068 298.61564995 27.69232132 305.2995121 40.48828125 309.4140625 C44.82801881 310.54801102 48.56156575 311.3125 53.0625 311.3125 C52.38944106 307.53088018 51.34153263 304.01541651 50.125 300.375 C47.96967531 293.37607292 46.70077994 286.60503178 46.0625 279.3125 C45.98918457 278.5503418 45.91586914 277.78818359 45.84033203 277.00292969 C44.61574841 262.82264734 44.61574841 262.82264734 47.7578125 257.37109375 C50 255 50 255 52.484375 252.75 C64.37807132 241.50505076 73.4507435 221.32535805 74.16113281 205.05322266 C74.16365713 203.13936768 74.11770485 201.22556028 74.0625 199.3125 C56.99613522 192.93381893 38.34313028 190.9318648 20.23486328 190.63989258 C19.33493652 190.6220874 18.43500977 190.60428223 17.5078125 190.5859375 C16.71906738 190.57997559 15.93032227 190.57401367 15.11767578 190.56787109 C13.0625 190.3125 13.0625 190.3125 10.0625 188.3125 C8.7425 188.3125 7.4225 188.3125 6.0625 188.3125 Z " fill="#020200" transform="translate(373.9375,183.6875)"/>
<path d="M0 0 C1.28308218 3.84924655 0.84857288 7.27263752 0.5625 11.25 C-2.62626174 63.14825263 7.27474245 116.18472875 30 163 C30.33354492 163.70125 30.66708984 164.4025 31.01074219 165.125 C41.60265276 187.38382102 54.92019922 208.29150136 71 227 C71.88547317 228.06788536 72.7695028 229.13696876 73.65234375 230.20703125 C83.82741137 242.43970434 94.85470392 254.11369687 107.39453125 263.94921875 C110.14923289 266.11746217 112.78407376 268.39674569 115.4375 270.6875 C166.78989887 313.32715253 231.97383922 334.7242835 298 338 C298.72268066 338.03609375 299.44536133 338.0721875 300.18994141 338.109375 C304.47125928 338.2891207 308.72284865 338.20719764 313 338 C313.97453125 337.95359375 314.9490625 337.9071875 315.953125 337.859375 C357.81988329 335.69724194 399.25515357 326.62266701 437 308 C437.97146973 307.52578613 438.94293945 307.05157227 439.94384766 306.56298828 C475.92433859 288.86961155 510.04344368 263.83237353 536 233 C536.44585449 232.47325684 536.89170898 231.94651367 537.35107422 231.40380859 C575.9345113 185.60733145 600.61946386 130.3123404 609 71 C609.14133362 70.00563431 609.14133362 70.00563431 609.28552246 68.99118042 C611.30093261 54.27966306 611.23344924 39.63628382 611.125 24.8125 C611.11494069 22.39388395 611.1058201 19.97526381 611.09765625 17.55664062 C611.07589847 11.70433586 611.04265915 5.85218785 611 0 C628.31704937 33.26075426 612.1355404 99.14222618 601.8671875 132.20703125 C601.24957936 134.13955745 600.62726464 136.07058651 600 138 C599.70254883 138.91700684 599.40509766 139.83401367 599.09863281 140.77880859 C585.42769317 182.13894328 562.27490848 218.9760474 533 251 C532.14535156 251.9590625 531.29070313 252.918125 530.41015625 253.90625 C520.45171906 265.03934612 509.56181052 274.6039079 497.71289062 283.67675781 C496.09082423 284.92983647 494.49000171 286.21027501 492.890625 287.4921875 C430.57686092 336.99525389 348.25081425 356.15172167 270 348 C193.76082087 338.69597511 116.44783973 300.97781991 68.1953125 239.81640625 C67.10863281 238.42228516 67.10863281 238.42228516 66 237 C65.14503777 235.94514613 64.28817796 234.89182817 63.4296875 233.83984375 C20.74563854 181.15496129 -3.56820871 113.66873576 -3.26074219 45.86645508 C-3.25001973 43.06765024 -3.26071686 40.2694888 -3.2734375 37.47070312 C-3.28253535 25.24145634 -2.72543339 13.11884869 -1 1 C-0.67 0.67 -0.34 0.34 0 0 Z " fill="#0453C9" transform="translate(14,294)"/>
<path d="M0 0 C2.07373047 1.13232422 2.07373047 1.13232422 4.1171875 2.5546875 C5.26501709 3.34576904 5.26501709 3.34576904 6.43603516 4.15283203 C7.24089355 4.72114746 8.04575195 5.28946289 8.875 5.875 C9.70692871 6.45491699 10.53885742 7.03483398 11.39599609 7.63232422 C13.93804624 9.41132246 16.46986862 11.20410283 19 13 C20.15532227 13.81307617 20.15532227 13.81307617 21.33398438 14.64257812 C23.43841731 16.12663983 25.53368466 17.62252659 27.625 19.125 C28.25776855 19.57343262 28.89053711 20.02186523 29.54248047 20.48388672 C33.88334539 23.65003617 33.88334539 23.65003617 35 27 C32.8125 29.0625 32.8125 29.0625 30 31 C26.44746291 30.83083157 25.0007165 30.00047767 22 28 C16.08170905 28.48092248 10.99043476 31.72342942 7 36 C6.64244715 38.66036346 6.92689751 40.90712219 7.23046875 43.56640625 C7 46 7 46 5.17578125 48.08984375 C2.84704766 49.86358125 0.48233177 51.45059756 -2 53 C-2.64839844 53.58265625 -3.29679687 54.1653125 -3.96484375 54.765625 C-6 56 -6 56 -8.55078125 55.70703125 C-9.91783203 55.26423828 -9.91783203 55.26423828 -11.3125 54.8125 C-12.27929688 54.51730469 -13.24609375 54.22210938 -14.2421875 53.91796875 C-15.87764263 53.37358921 -17.50955358 52.81801658 -19.1328125 52.23828125 C-21.11947686 51.52090752 -21.11947686 51.52090752 -24 51 C-26.44146006 52.22338275 -26.44146006 52.22338275 -28 54 C-26.64988233 57.00977451 -25.10394115 59.08074461 -22.8125 61.4375 C-20.00837578 64.63146589 -20.00837578 64.63146589 -19.9375 67.75 C-21.06211444 70.13153645 -21.80074229 71.53382819 -24 73 C-27.37751679 72.576073 -28.99699498 71.36353031 -31.3125 68.9375 C-32.22708984 67.98230469 -32.22708984 67.98230469 -33.16015625 67.0078125 C-35.47375842 64.48298974 -37.73080088 61.91566982 -39.96484375 59.3203125 C-42.9994129 55.8605542 -46.13204655 52.4916488 -49.26855469 49.12426758 C-55.01354675 42.9134378 -55.01354675 42.9134378 -54.97265625 40.15625 C-53.51106026 36.9160854 -51.04535832 34.82427542 -48.4375 32.5 C-47.89319336 32.01168701 -47.34888672 31.52337402 -46.78808594 31.02026367 C-41.6756186 26.54345349 -36.91837574 22.96512859 -29.875 22.5 C-24.50777637 23.19254498 -21.66695066 25.11078925 -18.125 29.125 C-16.42295315 33.47467527 -16.81393856 37.34846393 -17 42 C-12.05 43.65 -7.1 45.3 -2 47 C-2.27263672 45.91581787 -2.54527344 44.83163574 -2.82617188 43.71459961 C-3.84080009 39.67057577 -4.84458806 35.62392489 -5.84521484 31.57641602 C-6.27880958 29.82894193 -6.71529444 28.08218221 -7.15478516 26.33618164 C-7.78799502 23.8184186 -8.41057764 21.29822287 -9.03125 18.77734375 C-9.22811401 18.00414291 -9.42497803 17.23094208 -9.62780762 16.43431091 C-10.7348509 11.88638135 -11.44154136 7.71508389 -11 3 C-7.13434935 -0.5959541 -4.99900494 -1.47682646 0 0 Z M-1 11 C-0.71515154 12.73030291 -0.42180062 14.45920714 -0.125 16.1875 C0.03742188 17.15042969 0.19984375 18.11335938 0.3671875 19.10546875 C0.98039517 21.91032604 1.85666343 24.37224747 3 27 C7.45941297 25.59847021 9.79491575 23.33436496 13 20 C10.85609361 18.49717827 8.71001973 16.99764203 6.5625 15.5 C5.95083984 15.07074219 5.33917969 14.64148438 4.70898438 14.19921875 C2.0808186 11.98715008 2.0808186 11.98715008 -1 11 Z M-38.1875 35.3125 C-39.26064453 36.23482422 -39.26064453 36.23482422 -40.35546875 37.17578125 C-42.3347898 38.96202593 -42.3347898 38.96202593 -42 42 C-40.69563273 43.66756036 -40.69563273 43.66756036 -39 45.1875 C-38.1646875 45.98220703 -38.1646875 45.98220703 -37.3125 46.79296875 C-36.879375 47.19128906 -36.44625 47.58960938 -36 48 C-30.97166693 46.56333341 -28.83341092 44.25011637 -26 40 C-25.74058283 37.29558468 -25.74058283 37.29558468 -27 35 C-31.31501399 30.82881981 -33.92207445 31.55985785 -38.1875 35.3125 Z " fill="#020200" transform="translate(143,55)"/>
<path d="M0 0 C0.90078278 0.06013779 1.80156555 0.12027557 2.72964478 0.18223572 C4.19064102 0.28840965 4.19064102 0.28840965 5.68115234 0.39672852 C6.67714447 0.4647316 7.6731366 0.53273468 8.6993103 0.60279846 C11.88896061 0.82179959 15.0780001 1.04863026 18.26708984 1.27563477 C20.42590839 1.42523824 22.58476222 1.57433337 24.74365234 1.72290039 C30.04355554 2.08874154 35.34297775 2.46101705 40.64208984 2.83813477 C39.76708984 9.58813477 39.76708984 9.58813477 38.64208984 11.83813477 C36.35693359 12.25219727 36.35693359 12.25219727 33.57958984 12.46313477 C32.66048828 12.53790039 31.74138672 12.61266602 30.79443359 12.68969727 C29.72902344 12.76317383 29.72902344 12.76317383 28.64208984 12.83813477 C27.58079558 15.08064355 26.54327751 17.32962566 25.51708984 19.58813477 C25.21416016 20.22235352 24.91123047 20.85657227 24.59912109 21.51000977 C22.89899636 25.16374512 22.89899636 25.16374512 23.27490234 29.04125977 C24.63883113 30.8860876 24.63883113 30.8860876 26.2956543 32.66894531 C27.64208984 34.83813477 27.64208984 34.83813477 27.40405273 36.99658203 C27.12295654 37.7705835 26.84186035 38.54458496 26.55224609 39.34204102 C26.2507666 40.22005371 25.94928711 41.09806641 25.63867188 42.00268555 C25.3097998 42.93838379 24.98092773 43.87408203 24.64208984 44.83813477 C24.04734082 46.80254905 23.46288872 48.770107 22.88818359 50.74047852 C22.28556124 52.75226984 21.68269476 54.76398805 21.07958984 56.77563477 C20.77601562 57.80237305 20.47244141 58.82911133 20.15966797 59.88696289 C19.86382812 60.86987305 19.56798828 61.8527832 19.26318359 62.86547852 C18.99948975 63.74969482 18.7357959 64.63391113 18.46411133 65.54492188 C17.64208984 67.83813477 17.64208984 67.83813477 15.64208984 70.83813477 C5.70501999 68.58711447 -4.05879624 65.83551316 -13.79541016 62.83813477 C-15.47558228 62.34023437 -15.47558228 62.34023437 -17.18969727 61.83227539 C-18.23391846 61.50420898 -19.27813965 61.17614258 -20.35400391 60.83813477 C-21.7644397 60.40500977 -21.7644397 60.40500977 -23.20336914 59.96313477 C-25.35791016 58.83813477 -25.35791016 58.83813477 -26.22924805 56.88500977 C-26.40153437 54.14412066 -25.51679026 52.2922338 -24.35791016 49.83813477 C-16.8507708 50.39742846 -10.10192971 52.19597375 -2.92041016 54.40063477 C-0.77655828 55.05001728 1.36794122 55.69726686 3.51318359 56.34204102 C4.450896 56.62893799 5.3886084 56.91583496 6.35473633 57.21142578 C8.56829869 57.92621796 8.56829869 57.92621796 10.64208984 57.83813477 C10.81337402 57.29809814 10.9846582 56.75806152 11.16113281 56.20166016 C11.93865236 53.76541473 12.72769954 51.33305839 13.51708984 48.90063477 C13.78650391 48.05049805 14.05591797 47.20036133 14.33349609 46.32446289 C14.59775391 45.51557617 14.86201172 44.70668945 15.13427734 43.87329102 C15.3751709 43.12442627 15.61606445 42.37556152 15.86425781 41.60400391 C16.64208984 39.83813477 16.64208984 39.83813477 18.64208984 38.83813477 C15.30060078 35.47186287 11.95579196 32.1089376 8.60791016 28.74902344 C7.47028008 27.60637535 6.33355052 26.46282994 5.19775391 25.31835938 C3.56178904 23.67021788 1.92257603 22.0253672 0.28271484 20.38110352 C-0.22161072 19.87161667 -0.72593628 19.36212982 -1.24554443 18.83720398 C-3.81150661 16.27083819 -6.382905 13.9212556 -9.35791016 11.83813477 C-8.45955851 4.05242048 -8.45955851 4.05242048 -6.35791016 0.83813477 C-3.93553394 -0.37305334 -2.68845935 -0.18774157 0 0 Z M2.64208984 9.83813477 C6.52001272 14.76721623 10.40325818 18.38050587 15.64208984 21.83813477 C16.31328533 20.38188027 16.97890792 18.92305609 17.64208984 17.46313477 C18.01333984 16.65102539 18.38458984 15.83891602 18.76708984 15.00219727 C19.76703997 12.91815044 19.76703997 12.91815044 19.64208984 10.83813477 C15.80484812 9.93399803 12.2670671 9.73236578 8.32958984 9.77563477 C6.72664063 9.78916992 6.72664063 9.78916992 5.09130859 9.80297852 C4.28306641 9.81458008 3.47482422 9.82618164 2.64208984 9.83813477 Z " fill="#020200" transform="translate(26.35791015625,190.161865234375)"/>
<path d="M0 0 C3.01847084 2.79760712 3.37881437 4.33391617 3.5625 8.375 C4.75875 8.148125 5.955 7.92125 7.1875 7.6875 C11.49685712 7.16215434 13.90967586 7.88443809 17.5625 10.375 C20.81023178 13.19539865 21.91359728 15.61714384 22.3125 19.8125 C21.95054572 29.48391845 14.22130325 38.94782074 8.5625 46.375 C4.97649949 45.81543231 2.45260223 44.93631123 -0.58984375 42.96875 C-1.36030029 42.47600586 -2.13075684 41.98326172 -2.92456055 41.47558594 C-3.73320557 40.94739258 -4.54185059 40.41919922 -5.375 39.875 C-6.62567261 39.0711084 -6.62567261 39.0711084 -7.90161133 38.25097656 C-9.59996855 37.15828171 -11.29618952 36.06225923 -12.99023438 34.96289062 C-15.25440481 33.49379999 -17.52399612 32.03369433 -19.796875 30.578125 C-23.01472951 28.5170416 -26.22767179 26.4485595 -29.4375 24.375 C-28.90811822 19.63748169 -26.71378411 16.25196309 -24.125 12.375 C-23.73376953 11.77171875 -23.34253906 11.1684375 -22.93945312 10.546875 C-17.03642507 1.54059671 -11.39481851 -5.38664148 0 0 Z M-13.45703125 10.5625 C-14.04871094 11.490625 -14.64039063 12.41875 -15.25 13.375 C-15.85457031 14.303125 -16.45914063 15.23125 -17.08203125 16.1875 C-17.52933594 16.909375 -17.97664063 17.63125 -18.4375 18.375 C-15.66469294 21.45589673 -13.37423644 23.06275452 -9.4375 24.375 C-8.401531 22.80152824 -7.38418268 21.21578454 -6.375 19.625 C-5.80652344 18.74328125 -5.23804688 17.8615625 -4.65234375 16.953125 C-3.23928038 14.51481013 -3.23928038 14.51481013 -3.62890625 12.171875 C-4.39873068 10.17733316 -4.39873068 10.17733316 -6.4375 8.375 C-9.97565354 7.72643503 -10.97696545 7.87616181 -13.45703125 10.5625 Z M2.5078125 19.203125 C1.90710938 20.00234375 1.30640625 20.8015625 0.6875 21.625 C0.07132813 22.41390625 -0.54484375 23.2028125 -1.1796875 24.015625 C-2.63017519 26.24755681 -2.63017519 26.24755681 -2.32421875 28.53125 C-0.87858168 31.53715615 1.77154734 32.7123048 4.5625 34.375 C8.52067289 33.10273014 9.95332759 30.69594637 11.80078125 27.18359375 C12.83595957 24.72570881 13.07231362 22.9968986 12.5625 20.375 C11.47916667 18.45833333 11.47916667 18.45833333 9.5625 17.375 C6.24601742 16.89965571 5.05323107 16.93837996 2.5078125 19.203125 Z " fill="#020200" transform="translate(61.4375,145.625)"/>
<path d="M0 0 C5.75 1.875 5.75 1.875 8 3 C8.50244141 5.95922852 8.50244141 5.95922852 8.8515625 9.87890625 C8.94719986 10.90889992 8.94719986 10.90889992 9.04476929 11.95970154 C9.24701463 14.15993636 9.43613567 16.3610801 9.625 18.5625 C9.75955595 20.05151032 9.89496158 21.54044413 10.03125 23.02929688 C10.36404228 26.68536023 10.68507161 30.34234969 11 34 C11.46841309 33.09906616 11.46841309 33.09906616 11.94628906 32.17993164 C13.36697777 29.46658446 14.80812331 26.76464295 16.25 24.0625 C16.74113281 23.11697266 17.23226562 22.17144531 17.73828125 21.19726562 C18.22167969 20.29814453 18.70507812 19.39902344 19.203125 18.47265625 C19.64301758 17.64000244 20.08291016 16.80734863 20.53613281 15.94946289 C22 14 22 14 24.00292969 13.13061523 C26.9742725 12.93627924 28.61854854 14.34621426 31 16 C30.39342116 20.45262506 28.62453151 24.01092532 26.5078125 27.91015625 C26.16120575 28.55947617 25.814599 29.20879608 25.45748901 29.87779236 C24.72587804 31.24513153 23.99112282 32.61079245 23.25341797 33.97485352 C22.12881744 36.05543749 21.01483112 38.14143425 19.90234375 40.22851562 C19.18811978 41.56022842 18.47329594 42.8916197 17.7578125 44.22265625 C17.26077316 45.1524807 17.26077316 45.1524807 16.75369263 46.10108948 C15.04042114 49.25960197 13.25053871 52.19572974 11 55 C7.62537285 54.45276317 5.91765 53.9451 3 52 C2.3840332 49.01904297 2.3840332 49.01904297 2.05078125 45.2421875 C1.98843796 44.57913605 1.92609467 43.91608459 1.86186218 43.23294067 C1.66570103 41.11457485 1.48889454 38.99509432 1.3125 36.875 C1.18291149 35.43868686 1.05206745 34.00248639 0.91992188 32.56640625 C0.59631465 29.04539681 0.29892849 25.52354004 0 22 C-3.96 28.93 -7.92 35.86 -12 43 C-15.10380501 42.22404875 -17.25002779 41.4731994 -20 40 C-19.39321295 35.12911176 -17.29370424 31.36296418 -15 27.109375 C-14.40638672 25.99154633 -14.40638672 25.99154633 -13.80078125 24.85113525 C-12.9665412 23.28294653 -12.12923658 21.71638471 -11.2890625 20.15136719 C-9.99869001 17.74755965 -8.7173045 15.33913539 -7.4375 12.9296875 C-6.62551522 11.40597533 -5.81303259 9.88252833 -5 8.359375 C-4.42185547 7.27508209 -4.42185547 7.27508209 -3.83203125 6.16888428 C-1.11777255 1.11777255 -1.11777255 1.11777255 0 0 Z " fill="#020200" transform="translate(461,32)"/>
<path d="M0 0 C3.37487644 3.69127111 4.3050907 6.57097574 4.375 11.5625 C4.40335937 12.47773438 4.43171875 13.39296875 4.4609375 14.3359375 C3.86605057 18.01617022 2.20627968 20.23125964 0 23.1875 C1.20849609 24.41726562 1.20849609 24.41726562 2.44140625 25.671875 C3.48242729 26.75978888 4.52275628 27.84836529 5.5625 28.9375 C6.09552734 29.47632813 6.62855469 30.01515625 7.17773438 30.5703125 C8.69140625 32.171875 8.69140625 32.171875 11 35.1875 C10.64428711 37.37597656 10.64428711 37.37597656 10 39.1875 C7.14526937 39.81650844 4.88218879 40.29544715 2 40.1875 C-0.74121844 38.11487142 -2.53515001 35.81113539 -4.578125 33.0703125 C-7.68506657 28.84976126 -7.68506657 28.84976126 -12.2265625 26.67578125 C-14.67214287 26.6394613 -14.67214287 26.6394613 -18 27.1875 C-17.77183594 27.99574219 -17.54367188 28.80398437 -17.30859375 29.63671875 C-17.02113281 30.70535156 -16.73367187 31.77398437 -16.4375 32.875 C-16.00244141 34.45861328 -16.00244141 34.45861328 -15.55859375 36.07421875 C-14.99875233 39.19445382 -15.15309236 41.16443234 -16 44.1875 C-18.64 44.5175 -21.28 44.8475 -24 45.1875 C-25.619939 40.62322744 -26.7750806 36.03868497 -27.76171875 31.3046875 C-27.99408989 30.19965378 -27.99408989 30.19965378 -28.2311554 29.07229614 C-28.5549142 27.52468167 -28.87667596 25.9766482 -29.1965332 24.42822266 C-29.68784196 22.06085228 -30.19233908 19.69652943 -30.69726562 17.33203125 C-31.01122983 15.82308563 -31.32440824 14.31397626 -31.63671875 12.8046875 C-31.78872238 12.10044647 -31.94072601 11.39620544 -32.09733582 10.67062378 C-32.7929009 7.23330423 -33.27932603 4.51897812 -32 1.1875 C-7.6685265 -4.6330681 -7.6685265 -4.6330681 0 0 Z M-17.25 6.125 C-18.8175 6.475625 -20.385 6.82625 -22 7.1875 C-21.34 11.1475 -20.68 15.1075 -20 19.1875 C-12.3935674 18.84932803 -12.3935674 18.84932803 -6 15.1875 C-5.40412423 11.10149472 -5.68432616 9.66101075 -8 6.1875 C-11.28534728 4.82336667 -13.84535593 5.36343488 -17.25 6.125 Z " fill="#020200" transform="translate(269,8.8125)"/>
<path d="M0 0 C22.36724166 1.15008867 22.36724166 1.15008867 30 8 C33.84943366 13.26089267 33.58658337 18.75367978 33 25 C31.89051137 31.97852268 30.80696159 38.62751352 26 44 C19.86596627 48.39958281 13.18191221 47.77159175 5.93408203 46.69238281 C1.59232198 45.92954648 -2.70599476 44.99777715 -7 44 C-8.33592189 39.59210907 -7.45625729 35.79811839 -6.6015625 31.3671875 C-6.44714691 30.53414093 -6.29273132 29.70109436 -6.13363647 28.84280396 C-5.80624478 27.08538249 -5.4748205 25.32870812 -5.13964844 23.57275391 C-4.62586229 20.87952006 -4.12437543 18.18422047 -3.625 15.48828125 C-3.3054032 13.78111586 -2.98511437 12.07407985 -2.6640625 10.3671875 C-2.51297028 9.55885468 -2.36187805 8.75052185 -2.20620728 7.91769409 C-1.11693643 2.23387287 -1.11693643 2.23387287 0 0 Z M8 9 C7.1636693 13.29108825 6.33144191 17.58296205 5.5 21.875 C5.26152344 23.09832031 5.02304687 24.32164063 4.77734375 25.58203125 C4.55175781 26.74863281 4.32617188 27.91523438 4.09375 29.1171875 C3.88427734 30.19597168 3.67480469 31.27475586 3.45898438 32.38623047 C2.94234798 34.88601602 2.94234798 34.88601602 3 37 C8.39355559 38.6086043 12.41334213 39.53359236 18 38 C22.39109845 34.36598749 22.70219239 27.67634999 23.296875 22.33203125 C23.57902702 17.03894567 23.57902702 17.03894567 21.125 12.5 C18.21663216 11.10398344 15.94444056 10.49846359 12.8046875 9.90625 C11.90476074 9.73416016 11.00483398 9.56207031 10.07763672 9.38476562 C9.3920166 9.25779297 8.70639648 9.13082031 8 9 Z " fill="#020200" transform="translate(362,3)"/>
<path d="M0 0 C13.44599767 10.29802363 13.44599767 10.29802363 15.15234375 17.6484375 C15.66707392 24.99011519 12.75465691 30.1145718 8.15234375 35.6484375 C3.3291576 40.13512229 -0.71431856 41.13503045 -7.1640625 41.05078125 C-11.97370537 40.32968487 -15.16851064 37.67907751 -18.84765625 34.6484375 C-19.65847656 33.99875 -20.46929687 33.3490625 -21.3046875 32.6796875 C-26.16080034 28.60023891 -30.19561312 25.1207846 -31.15234375 18.55859375 C-31.48770581 12.78839353 -30.2195639 8.34537631 -26.84765625 3.6484375 C-19.03786169 -4.8799338 -9.67842918 -6.63116138 0 0 Z M-18.78515625 7.7109375 C-21.66444596 11.79795636 -21.66444596 11.79795636 -21.84765625 16.6484375 C-18.06559681 22.63969991 -11.5595756 28.94565976 -4.8046875 31.38671875 C-1.57515188 31.81861274 0.45124699 30.29258335 3.15234375 28.6484375 C5.56066469 25.03595609 5.8759523 23.90968782 5.15234375 19.6484375 C3.12284364 16.66559872 0.71636908 14.17605679 -1.84765625 11.6484375 C-2.34910156 11.12507813 -2.85054687 10.60171875 -3.3671875 10.0625 C-5.98280122 7.56938059 -8.42133775 6.23557461 -11.91015625 5.5234375 C-15.9082115 5.29012756 -15.9082115 5.29012756 -18.78515625 7.7109375 Z " fill="#020200" transform="translate(92.84765625,113.3515625)"/>
<path d="M0 0 C5.80776324 3.96177493 8.07787861 12.03700367 10.5 18.3125 C11.63732397 24.56778182 12.26568136 30.33702019 9.5 36.1875 C4.21417213 41.89063007 -1.62646324 44.76398016 -9.375 45.0625 C-13.54328565 44.95041165 -16.36164833 44.11946973 -19.875 41.75 C-22.96819884 38.29431692 -24.84179146 34.98112921 -26.5625 30.6875 C-26.97886719 29.66527344 -27.39523438 28.64304687 -27.82421875 27.58984375 C-29.91099037 21.95013012 -30.5594323 16.75779465 -29.875 10.75 C-24.41527456 -0.16945089 -11.41702692 -5.04591815 0 0 Z M-17.875 9.75 C-20.13798437 11.61963998 -20.13798437 11.61963998 -20.3125 14.5625 C-20.1290314 21.25204752 -17.15919125 28.99620456 -12.91796875 34.109375 C-10.85331921 36.04298032 -10.85331921 36.04298032 -7.4375 36.3125 C-3.77606252 36.00211519 -3.77606252 36.00211519 -0.9375 33.6875 C1.01716767 30.90357938 1.87604179 29.38134092 1.61328125 25.98046875 C0.22842008 19.65442292 -1.6251914 12.97082556 -6.30078125 8.35546875 C-10.94024054 5.46196683 -13.72092195 6.90773607 -17.875 9.75 Z " fill="#020200" transform="translate(224.875,19.25)"/>
<path d="M0 0 C7.91857751 6.85850988 7.91857751 6.85850988 8.79296875 12.703125 C9.06954098 23.97751066 3.93733426 30.03655839 -3.39453125 38.15625 C-7.89034536 42.41078607 -11.72034097 42.72636736 -17.76171875 42.59765625 C-24.70920753 41.6726092 -29.13660185 37.06503563 -33.44921875 31.87109375 C-36.01535199 28.12400646 -35.99647688 24.61535101 -35.578125 20.22265625 C-32.37287906 11.29589654 -26.23505167 1.53792305 -17.578125 -2.77734375 C-11.34117163 -4.54964572 -5.36014541 -3.69525176 0 0 Z M-18.578125 11.22265625 C-23.85516906 18.01035911 -23.85516906 18.01035911 -25.828125 26.16015625 C-24.31027715 29.87888349 -23.08672652 31.27343318 -19.578125 33.22265625 C-16.578125 33.97265625 -16.578125 33.97265625 -13.578125 33.22265625 C-10.95266062 31.26904203 -10.95266062 31.26904203 -8.578125 28.22265625 C-7.97355469 27.53300781 -7.36898438 26.84335938 -6.74609375 26.1328125 C-3.03427632 21.71038236 -0.22918358 18.27097426 -0.578125 12.22265625 C-2.34453672 9.42076179 -3.60862322 7.70740714 -6.578125 6.22265625 C-12.10346974 5.46920015 -15.02707296 7.17550136 -18.578125 11.22265625 Z " fill="#020200" transform="translate(516.578125,63.77734375)"/>
<path d="M0 0 C3.33737179 2.30008056 4.7140362 5.16904082 6.25 8.875 C7.71242009 17.69130397 8.65381391 28.06737218 4.5625 36.25 C0.44162731 40.92774737 -2.94162947 43.00594297 -9.125 43.75 C-15.3353788 44.0959586 -20.12914792 43.44751125 -25.5625 40.1875 C-31.05722236 34.37879351 -31.2470138 28.0498563 -31.1875 20.4375 C-31.20748047 19.53451172 -31.22746094 18.63152344 -31.24804688 17.70117188 C-31.24364676 11.62461432 -30.27197691 6.91386795 -26.75 1.875 C-19.93046467 -4.18680918 -7.8505109 -4.50057119 0 0 Z M-20.75 10.875 C-21.42065405 13.89953263 -21.36016778 16.79030211 -21.25 19.875 C-21.25257813 20.6690625 -21.25515625 21.463125 -21.2578125 22.28125 C-21.18034534 26.92927976 -20.74926107 30.11122141 -17.75 33.875 C-14.53762512 35.48118744 -11.22482151 35.48739429 -7.75 34.875 C-4.35036947 31.82404953 -3.38145767 29.29520367 -2.75 24.875 C-2.57507432 15.75267556 -2.57507432 15.75267556 -5.875 7.5 C-12.25832411 3.8920342 -16.42788554 5.22412738 -20.75 10.875 Z " fill="#020200" transform="translate(329.75,2.125)"/>
<path d="M0 0 C5.37636846 2.6155306 7.7103333 7.48272717 9.6875 12.875 C10.60610011 19.12148075 10.53608945 23.63489877 7 29 C4.5 31.4375 4.5 31.4375 2 33 C1.01 32.67 0.02 32.34 -1 32 C-1.22174933 30.54364629 -1.42698698 29.08477044 -1.625 27.625 C-1.74101563 26.81289062 -1.85703125 26.00078125 -1.9765625 25.1640625 C-1.98816406 24.09285156 -1.98816406 24.09285156 -2 23 C-1.34 22.34 -0.68 21.68 0 21 C0.35173852 17.20122401 0.52701444 14.85639847 -1.5 11.5625 C-1.995 11.046875 -2.49 10.53125 -3 10 C-4.32 10.33 -5.64 10.66 -7 11 C-7.77970196 13.77508501 -8.12981319 16.27355269 -8.17578125 19.15234375 C-8.19962891 19.92900391 -8.22347656 20.70566406 -8.24804688 21.50585938 C-8.29090504 23.12278088 -8.32221611 24.74005099 -8.34179688 26.35742188 C-8.52451566 31.48629571 -9.16079492 34.26220789 -13 38 C-16.48018981 40.52013745 -19.80549604 40.36793894 -24 40 C-29.30686902 37.72562756 -32.97438764 33.54266397 -35.125 28.2109375 C-36.04731639 24.82636577 -36.30009281 21.94046415 -36.3125 18.4375 C-36.32925781 17.34308594 -36.34601562 16.24867188 -36.36328125 15.12109375 C-35.8514186 10.72347809 -34.19553985 8.12081861 -31 5.125 C-30.34 4.75375 -29.68 4.3825 -29 4 C-26 5 -26 5 -24.75 7.3125 C-23.95361656 10.16620733 -23.91754303 11.29385757 -25 14 C-25.99 15.485 -25.99 15.485 -27 17 C-26.67370401 21.11132941 -26.15681413 25.03378012 -25 29 C-23.02 29 -21.04 29 -19 29 C-18.11307367 26.339221 -17.85710112 24.68246229 -17.7890625 21.9453125 C-17.74652344 20.77548828 -17.74652344 20.77548828 -17.703125 19.58203125 C-17.65129716 17.95204567 -17.60695065 16.32180398 -17.5703125 14.69140625 C-17.34146564 8.90348763 -16.46680623 5.33374199 -12.1171875 1.21875 C-8.25987486 -1.00169565 -4.29901295 -0.7198979 0 0 Z " fill="#020200" transform="translate(629,227)"/>
<path d="M0 0 C6.77340204 1.23399316 13.0976607 3.29139697 19.5625 5.625 C20.93245117 6.11226562 20.93245117 6.11226562 22.33007812 6.609375 C24.55511941 7.40153629 26.77832175 8.1984659 29 9 C29.125 14.75 29.125 14.75 28 17 C22.73378394 16.40421223 18.05591981 15.18691204 13.0625 13.4375 C12.37865234 13.20353516 11.69480469 12.96957031 10.99023438 12.72851562 C9.32491499 12.15788171 7.66217507 11.57972902 6 11 C5.67 13.97 5.34 16.94 5 20 C13.415 22.97 13.415 22.97 22 26 C22 27.98 22 29.96 22 32 C21.67 32.33 21.34 32.66 21 33 C14.04142926 32.55105995 7.67027085 30.98237956 1 29 C0.01 31.97 -0.98 34.94 -2 38 C-0.741875 38.2475 0.51625 38.495 1.8125 38.75 C7.40232809 39.97833802 12.66785174 41.94687375 18 44 C18.125 49.75 18.125 49.75 17 52 C10.11357167 50.60152532 3.58173303 48.64985223 -3.0625 46.375 C-4.02349609 46.05015625 -4.98449219 45.7253125 -5.97460938 45.390625 C-8.31784644 44.59788808 -10.65956176 43.80095424 -13 43 C-12.43597001 37.30831605 -11.33133408 32.23480136 -9.53125 26.81640625 C-9.29088013 26.07543198 -9.05051025 25.3344577 -8.80285645 24.57102966 C-8.29856766 23.02125837 -7.79083583 21.47260349 -7.27978516 19.92504883 C-6.49487966 17.54698667 -5.72122789 15.16547959 -4.94921875 12.78320312 C-4.4563757 11.27322632 -3.96290882 9.76345296 -3.46875 8.25390625 C-3.23643677 7.54045547 -3.00412354 6.8270047 -2.76477051 6.0919342 C-1.11651195 1.11651195 -1.11651195 1.11651195 0 0 Z " fill="#020200" transform="translate(408,12)"/>
<path d="M0 0 C3.69914226 6.62762988 3.69914226 6.62762988 3 11 C1.75 12.83349609 1.75 12.83349609 0 14.5234375 C-0.95410767 15.46110962 -0.95410767 15.46110962 -1.92749023 16.41772461 C-2.61141846 17.06362549 -3.29534668 17.70952637 -4 18.375 C-4.689729 19.04474854 -5.37945801 19.71449707 -6.09008789 20.40454102 C-10.02965436 24.2065781 -14.03017889 27.92353201 -18.23046875 31.4375 C-21.05829239 33.93447452 -23.59034498 36.71923926 -26.140625 39.49609375 C-28 41 -28 41 -32 41 C-33.48400777 38.64304648 -34.01570001 37.31400019 -33.875 34.5 C-32.8281942 31.50912627 -31.36678851 30.06139645 -29 28 C-30.74807129 22.53262809 -32.65794081 17.24175152 -35 12 C-35.61488281 11.97421875 -36.22976563 11.9484375 -36.86328125 11.921875 C-43.45901639 11.45901639 -43.45901639 11.45901639 -46.0625 9.25 C-47.13726771 6.6705575 -47.06872532 4.76733963 -47 2 C-42.71777023 1.70876035 -38.43515275 1.42431167 -34.15209961 1.14550781 C-32.70243884 1.05025946 -31.25288794 0.95332012 -29.8034668 0.85449219 C-19.84933309 0.17729323 -9.97871241 -0.13061854 0 0 Z M-26 10 C-24.7874262 13.72433382 -23.49140021 17.37802806 -22 21 C-18.34435261 19.46563424 -16.01301377 17.25017578 -13.25 14.4375 C-12.45078125 13.63183594 -11.6515625 12.82617188 -10.828125 11.99609375 C-8.8874337 10.32821409 -8.8874337 10.32821409 -9 9 C-14.78591511 8.89522488 -20.29309366 9.00749455 -26 10 Z " fill="#020200" transform="translate(621,194)"/>
<path d="M0 0 C5.02275063 3.41974511 9.70690396 8.25355972 11.9375 14 C12.58468638 19.40325371 13.09061805 25.07622928 9.9375 29.75 C9.2775 30.4925 8.6175 31.235 7.9375 32 C4.86218444 31.66753345 3.31917494 31.36895244 1.0625 29.1875 C-0.0625 27 -0.0625 27 0.1875 24.875 C0.9375 23 0.9375 23 1.9375 21 C2.3479525 17.30592747 2.16517266 15.4189177 0.375 12.125 C-1.93617488 9.71057169 -1.93617488 9.71057169 -5.2890625 9.59765625 C-9.74039946 10.07228121 -12.39561468 11.6938261 -15.875 14.3125 C-16.44669922 14.71662109 -17.01839844 15.12074219 -17.60742188 15.53710938 C-20.35888076 17.52553149 -22.16115387 19.1479808 -24.0625 22 C-23.97853056 25.86259426 -23.26231316 27.72147257 -21 30.875 C-17.90032628 33.11731716 -17.53311268 33.22411536 -14 33 C-10.0625 33 -10.0625 33 -7.5 35.25 C-6.0625 38 -6.0625 38 -6 40.1875 C-7.0625 42 -7.0625 42 -9.125 43.3125 C-14.4143257 44.55042729 -18.47433923 43.8258436 -23.1875 41.375 C-27.87615676 37.50176181 -32.57965299 33.07967276 -34.0625 27 C-34.50956821 21.36694052 -34.35054471 17.78261048 -31.0625 13 C-22.70157741 4.41815873 -12.57211824 -4.10518147 0 0 Z " fill="#020200" transform="translate(583.0625,133)"/>
<path d="M0 0 C4.81313383 2.55349416 7.34155307 5.13012796 9.04296875 10.234375 C9.58522334 14.90132022 9.51281435 18.31208548 7.35546875 22.546875 C3.79866986 26.68045209 1.19778362 29.28557981 -4.26953125 30.234375 C-9.30383868 30.5699955 -12.98689283 29.33520546 -16.95703125 26.234375 C-20.31726067 22.65644057 -21.22435482 19.00718216 -21.45703125 14.171875 C-21.23641431 9.48198581 -20.21972695 6.74804729 -16.95703125 3.234375 C-11.86448253 -0.89123409 -6.25616318 -2.44752093 0 0 Z " fill="#0352C7" transform="translate(355.95703125,261.765625)"/>
<path d="M0 0 C6.02829419 3.35024496 10.50290412 8.05772377 15.375 12.875 C16.31472656 13.77347656 17.25445313 14.67195313 18.22265625 15.59765625 C19.10566406 16.47035156 19.98867188 17.34304687 20.8984375 18.2421875 C21.70974121 19.0347998 22.52104492 19.82741211 23.35693359 20.64404297 C25 23 25 23 24.88134766 25.67236328 C24 28 24 28 22 30 C18.56078907 29.66041405 16.41985724 28.02888817 13.75 25.9375 C13.04359375 25.38964844 12.3371875 24.84179688 11.609375 24.27734375 C11.07828125 23.85582031 10.5471875 23.43429688 10 23 C9.5875 23.44279297 9.175 23.88558594 8.75 24.34179688 C4.79042479 28.58861805 0.81719316 32.82218633 -3.16650391 37.04638672 C-4.66816624 38.64642693 -6.15464677 40.26070321 -7.63671875 41.87890625 C-8.31347656 42.59949219 -8.99023438 43.32007813 -9.6875 44.0625 C-10.24824219 44.67222656 -10.80898438 45.28195313 -11.38671875 45.91015625 C-13 47 -13 47 -15.06640625 46.84375 C-17.91541973 45.60054412 -19.2191316 43.48049527 -21 41 C-16.60930075 34.70859298 -11.60155074 29.35588098 -6.125 24 C-5.34125 23.22527344 -4.5575 22.45054688 -3.75 21.65234375 C-1.83786662 19.76352907 0.07880182 17.87958609 2 16 C0.6856797 13.08751557 -0.26363688 11.75475639 -2.6875 9.5 C-5 7 -5 7 -5.0625 4.875 C-3.74743226 2.55429223 -2.22405166 1.43487204 0 0 Z " fill="#020200" transform="translate(536,81)"/>
<path d="M0 0 C1.9375 0.25 1.9375 0.25 4 1 C6 4 6 4 6.125 6.4375 C4.36760152 10.44046321 0.90468929 11.40788296 -3 13 C-1.71525467 17.13485643 -0.15798075 20.86491107 1.85546875 24.6953125 C2.39494141 25.74074219 2.93441406 26.78617188 3.49023438 27.86328125 C4.6274452 30.04871516 5.77074299 32.23099179 6.91992188 34.41015625 C7.45552734 35.45300781 7.99113281 36.49585938 8.54296875 37.5703125 C9.03821045 38.51664551 9.53345215 39.46297852 10.04370117 40.43798828 C11.0804107 43.2154276 11.18400896 44.31534166 10 47 C7.06004981 49.02755186 5.72295997 49 2 49 C-0.1414269 44.90926712 -2.27752682 40.81581524 -4.40869141 36.71972656 C-5.13476363 35.32605774 -5.86229756 33.93314944 -6.59130859 32.54101562 C-7.63762511 30.54233755 -8.67869127 28.54100253 -9.71875 26.5390625 C-10.21091003 25.60303696 -10.21091003 25.60303696 -10.7130127 24.64810181 C-13 20.22774341 -13 20.22774341 -13 18 C-13.68707031 18.3609375 -14.37414062 18.721875 -15.08203125 19.09375 C-15.98308594 19.5578125 -16.88414062 20.021875 -17.8125 20.5 C-18.70582031 20.9640625 -19.59914062 21.428125 -20.51953125 21.90625 C-23 23 -23 23 -26 23 C-27.45553315 20.68827088 -28.01075104 19.3195875 -27.91796875 16.56152344 C-26.60243469 12.8906236 -24.72479082 12.35427411 -21.25 10.703125 C-19.50203125 9.85427734 -19.50203125 9.85427734 -17.71875 8.98828125 C-16.47944554 8.40825794 -15.23985855 7.82883793 -14 7.25 C-12.75959434 6.65666399 -11.51999927 6.0616302 -10.28125 5.46484375 C-8.01994607 4.3767163 -5.75465029 3.29682243 -3.484375 2.22753906 C-1.11526222 1.22216545 -1.11526222 1.22216545 0 0 Z " fill="#020200" transform="translate(182,29)"/>
<path d="M0 0 C1.29550781 -0.02126953 1.29550781 -0.02126953 2.6171875 -0.04296875 C6.39184175 0.30392315 8.43294895 1.37186841 10.875 4.25 C12.99760859 9.23813018 12.93650166 13.99167198 11.0625 19.0625 C8.35140744 22.03595636 5.96746562 23.03476031 2.125 24.1875 C-3.18347307 24.0959746 -6.12160045 22.94089955 -9.875 19.1875 C-12.21579372 15.38470884 -12.01491847 12.68741578 -11.42578125 8.37890625 C-10.64213199 5.26098261 -9.15884549 3.40213805 -6.875 1.1875 C-4.42528376 -0.03735812 -2.73265539 0.02027192 0 0 Z " fill="#0453C9" transform="translate(298.875,227.8125)"/>
<path d="M0 0 C4.05411636 1.94909441 5.69131458 3.46228991 7.9375 7.375 C9.09433298 11.32184195 9.3182517 13.12763563 8 17 C6.08376994 19.85765319 4.13268081 22.43365959 1 24 C-2.74995483 24.52499368 -6.41194587 24.80572852 -9.85546875 23.05859375 C-13.09601845 20.50616078 -15.26251727 18.05615503 -16 14 C-15.64742982 9.21020509 -14.94625777 5.94625777 -11.5 2.5 C-7.33827382 0.00296429 -4.93326075 -0.41110506 0 0 Z " fill="#0453C9" transform="translate(348,327)"/>
<path d="M0 0 C2.274984 0.96746688 3.41214393 1.76840775 4.85546875 3.7890625 C5.234375 6.13671875 5.234375 6.13671875 4.85546875 8.7890625 C2.8359375 10.89453125 2.8359375 10.89453125 0.04296875 12.9765625 C-4.06362853 16.14481021 -7.96938305 19.38266594 -11.76953125 22.9140625 C-15.15158428 26.00581054 -18.54386306 29.06379884 -22.08203125 31.9765625 C-22.77167969 32.54761719 -23.46132813 33.11867187 -24.171875 33.70703125 C-26.14453125 34.7890625 -26.14453125 34.7890625 -28.28515625 34.54296875 C-30.59156825 33.6078059 -31.73882828 32.86062477 -33.14453125 30.7890625 C-32.9348367 27.56299248 -32.40785452 26.08597845 -30.24609375 23.6484375 C-29.02019531 22.60429687 -29.02019531 22.60429687 -27.76953125 21.5390625 C-26.86589844 20.76175781 -25.96226562 19.98445313 -25.03125 19.18359375 C-21.31536203 16.10126719 -17.58847572 13.03485431 -13.82421875 10.01171875 C-10.43842852 7.20338837 -7.2649626 4.19628711 -4.1171875 1.125 C-2.14453125 -0.2109375 -2.14453125 -0.2109375 0 0 Z " fill="#020200" transform="translate(567.14453125,112.2109375)"/>
<path d="M0 0 C1.80493164 0.76513672 1.80493164 0.76513672 3.11743164 2.51513672 C4.00751401 5.42813357 3.78282727 6.87968682 2.80493164 9.76513672 C0.53930664 11.53857422 0.53930664 11.53857422 -2.44506836 13.14013672 C-3.52916992 13.73310547 -4.61327148 14.32607422 -5.73022461 14.93701172 C-6.87362305 15.54029297 -8.01702148 16.14357422 -9.19506836 16.76513672 C-10.3075293 17.36841797 -11.41999023 17.97169922 -12.56616211 18.59326172 C-14.75274753 19.77798409 -16.94408308 20.95398686 -19.14038086 22.12060547 C-22.57502643 23.96969215 -25.94352764 25.91824773 -29.29272461 27.91748047 C-31.19506836 28.76513672 -31.19506836 28.76513672 -35.19506836 28.76513672 C-37.08070528 26.42434606 -38.25075564 24.86336078 -38.09521484 21.79589844 C-36.76568212 18.79642645 -34.84091155 18.06482297 -31.98022461 16.52294922 C-30.90063477 15.93126953 -29.82104492 15.33958984 -28.70874023 14.72998047 C-27.00041016 13.81925781 -27.00041016 13.81925781 -25.25756836 12.89013672 C-23.03933973 11.68584447 -20.8218822 10.48013073 -18.60522461 9.27294922 C-17.52515137 8.6919043 -16.44507813 8.11085937 -15.33227539 7.51220703 C-11.5541608 5.40822353 -7.92240845 3.11127049 -4.31396484 0.72949219 C-2.19506836 -0.23486328 -2.19506836 -0.23486328 0 0 Z " fill="#020200" transform="translate(605.195068359375,165.23486328125)"/>
<path d="M0 0 C4.5691466 31.526794 4.5691466 31.526794 5 44 C0.545 44.495 0.545 44.495 -4 45 C-5.51674746 40.09934212 -6.48541727 35.34018122 -7.0703125 30.23828125 C-7.19924393 29.16866402 -7.19924393 29.16866402 -7.33078003 28.07743835 C-7.50982727 26.582788 -7.68615522 25.08780957 -7.85986328 23.5925293 C-8.12556511 21.30764034 -8.39996524 19.02392234 -8.67578125 16.74023438 C-8.84946531 15.28131027 -9.02265958 13.82232775 -9.1953125 12.36328125 C-9.27653351 11.68405106 -9.35775452 11.00482086 -9.44143677 10.30500793 C-9.80396741 7.16463767 -10 4.1694721 -10 1 C-6.78548731 -0.60725635 -3.56387464 -0.05748185 0 0 Z " fill="#020200" transform="translate(289,2)"/>
<path d="M0 0 C3.41184222 1.92303834 5.42958014 3.34059677 6.73046875 7.125 C7.45195203 11.35389208 7.2344143 13.52248938 5.3125 17.4375 C2.66895254 20.36683637 0.79080885 21.84622751 -3.18359375 22.1875 C-7.59418217 21.82058796 -9.5681433 21.36134948 -13.0625 18.4375 C-15.57402103 13.9815756 -15.64128313 12.05010467 -15 7 C-13.76467542 4.15875347 -12.7444561 2.57902141 -10.3125 0.6875 C-6.80470111 -0.35535913 -3.58276421 -0.64641043 0 0 Z " fill="#0453C9" transform="translate(330,186)"/>
<path d="M0 0 C2.79865049 2.79865049 3.08471469 4.58114838 3.375 8.5 C3.10679349 12.38899436 2.5379723 14.10878462 0.125 17.125 C-3.38387686 19.85412644 -7.62869747 19.53649736 -11.875 19.125 C-14.82724902 18.24730435 -15.69303152 17.3524606 -17.625 14.9375 C-19.22354267 11.34077899 -19.35471981 9.03128989 -18.875 5.125 C-17.14522143 1.72950873 -15.80708897 -0.29559334 -12.5625 -2.3125 C-7.70210943 -3.32979105 -4.15453933 -2.70948217 0 0 Z " fill="#0453C9" transform="translate(302.875,155.875)"/>
<path d="M0 0 C3.49406769 1.66762322 4.82670681 2.74006022 7 6 C7.67226891 12.94677871 7.67226891 12.94677871 5.125 16.9375 C1.89661432 20.07093316 -0.44929709 20.39218693 -4.9609375 20.359375 C-8.38006698 19.7567698 -9.93189052 17.63213933 -12 15 C-13.45147903 12.09704195 -13.37239025 10.22738221 -13 7 C-9.55818378 1.43915514 -6.51289739 -0.51081548 0 0 Z " fill="#F5F8FC" transform="translate(388,421)"/>
<path d="M0 0 C3.4375 1.9375 3.4375 1.9375 6 5 C6.74526995 8.14606321 6.6855981 10.84624876 6 14 C4.20606332 16.87029869 3.01736724 18.49131638 0 20 C-4.18144011 20.39447548 -6.30946048 20.45035186 -9.875 18.125 C-12.80038857 15.19961143 -12.96503325 14.42659437 -13.3125 10.1875 C-13.28232024 6.86772673 -13.0060988 6.00955479 -11.125 3.0625 C-7.52217335 -0.43436116 -4.97275774 -0.49727577 0 0 Z " fill="#F7FAFD" transform="translate(288,443)"/>
<path d="M0 0 C3.55247432 0.87379409 4.94828114 2.4927342 6.9375 5.4765625 C7.63597125 8.3162489 7.63597125 10.6368761 6.9375 13.4765625 C4.95271994 16.45373258 3.56918881 18.10482694 0 18.91796875 C-3.58373453 19.12837741 -5.80011188 18.60229014 -9.0625 17.0390625 C-11.59564176 13.79347462 -11.79261424 11.71535793 -11.5390625 7.671875 C-10.20862199 1.54312447 -5.74485214 -0.41345527 0 0 Z " fill="#0453C9" transform="translate(278.0625,351.5234375)"/>
<path d="M0 0 C-0.96186952 4.61283663 -2.98801405 8.38242957 -6 12 C-9.3125 13.5 -9.3125 13.5 -12 14 C-13.16522497 10.5043251 -12.9720493 8.90838382 -11.875 5.3125 C-10 2 -10 2 -7.625 0.5625 C-4.99084906 -0.00196092 -2.68510176 -0.15343439 0 0 Z " fill="#020200" transform="translate(216,5)"/>
<path d="M0 0 C11.04486252 -0.78147612 11.04486252 -0.78147612 14.75 2.25 C16 5 16 5 16 9 C13.8939014 8.74462428 11.79011246 8.47014626 9.6875 8.1875 C8.51574219 8.03667969 7.34398437 7.88585937 6.13671875 7.73046875 C2.991121 6.99793229 1.73509911 6.68721125 0 4 C0 2.68 0 1.36 0 0 Z " fill="#020200" transform="translate(570,109)"/>
<path d="M0 0 C3 0.25 3 0.25 5 2.25 C5.375 5.1875 5.375 5.1875 5 8.25 C3.3125 10.1875 3.3125 10.1875 1 11.25 C-1.625 11.125 -1.625 11.125 -4 10.25 C-6 7.25 -6 7.25 -5.75 4.6875 C-4.63523671 1.06451932 -3.80176857 0.31681405 0 0 Z " fill="#0453C9" transform="translate(346,225.75)"/>
<path d="M0 0 C1.7325 0.1546875 1.7325 0.1546875 3.5 0.3125 C5.5 3.3125 5.5 3.3125 5.1875 6.4375 C4.5 9.3125 4.5 9.3125 3.5 10.3125 C0.0625 10.5 0.0625 10.5 -3.5 10.3125 C-5.5 8.3125 -5.5 8.3125 -5.75 5.3125 C-5.37833659 0.85253908 -4.40663794 0.39344982 0 0 Z " fill="#0453C9" transform="translate(294.5,293.6875)"/>
<path d="M0 0 C2.5 0.25 2.5 0.25 4.5 2.25 C4.75 5.25 4.75 5.25 4.5 8.25 C2.5 10.25 2.5 10.25 0 10.5 C-2.5 10.25 -2.5 10.25 -4.5 8.25 C-4.75 5.25 -4.75 5.25 -4.5 2.25 C-2.5 0.25 -2.5 0.25 0 0 Z " fill="#F4F8FC" transform="translate(320.5,406.75)"/>
<path d="M0 0 C5.56818182 0.56818182 5.56818182 0.56818182 7 2 C7.1875 4.9375 7.1875 4.9375 7 8 C6.34 8.66 5.68 9.32 5 10 C1.375 9.625 1.375 9.625 -2 9 C-2.125 5.625 -2.125 5.625 -2 2 C-1.34 1.34 -0.68 0.68 0 0 Z " fill="#F3F4F5" transform="translate(380,372)"/>
</svg>
